# xmcd
#
# Track frame offsets:
# 150
# 22974
# 44836
# 63348
# 83984
# 102099
# 120910
#
# Disc length: 1940 seconds
#
#
# Revision: 0
# Processed by: cddbd v1.5.2PL0 Copyright (c) Steve Scherf et al.
# Submitted via: FreeRIP 2.945 
#
DISCID=51079207
DTITLE=T.S. Monk - House of Music
DYEAR=1900
DGENRE=R&B
TTITLE0=Bon Bon Vie
TTITLE1=Candidate For Love
TTITLE2=Hot Night In The City
TTITLE3=The Last of The Wicked Romances
TTITLE4=Can't Keep My Hands To Myself
TTITLE5=Stay Free of is Love
TTITLE6=House of Music
EXTD=
EXTT0=
EXTT1=
EXTT2=
EXTT3=
EXTT4=
EXTT5=
EXTT6=
PLAYORDER=
